<svg xmlns="http://www.w3.org/2000/svg" viewBox="0 0 700 420">
<defs><filter id="glow"><feGaussianBlur stdDeviation="4" result="b"/><feMerge><feMergeNode in="b"/><feMergeNode in="SourceGraphic"/></feMerge></filter></defs>
<path d="M105 315A245 245 0 0 1 595 315" fill="none" stroke="#232629" stroke-width="28" stroke-linecap="round"/>
<path d="M105 315A245 245 0 0 1 210 113" fill="none" stroke="#F1262D" stroke-width="24" stroke-linecap="round"/>
<path d="M490 113A245 245 0 0 1 595 315" fill="none" stroke="#BFC1C4" stroke-width="24" stroke-linecap="round"/>
<path d="M210 113A245 245 0 0 1 490 113" fill="none" stroke="#2D3034" stroke-width="24" stroke-linecap="round"/>
<line x1="350" y1="315" x2="350" y2="130" stroke="#F1262D" stroke-width="10" filter="url(#glow)"/><path d="M350 105l-18 38h36z" fill="#F1262D"/>
<circle cx="350" cy="315" r="24" fill="#111315" stroke="#F1262D" stroke-width="8"/><circle cx="350" cy="315" r="8" fill="#F1262D"/>
<circle cx="350" cy="90" r="42" fill="#E91F27" stroke="#FF4147" stroke-width="3"/><text x="350" y="102" text-anchor="middle" font-family="Arial" font-weight="700" font-size="32" fill="white">1/2</text>
<text x="78" y="326" font-family="Arial" font-size="28" fill="#F1262D">E</text><text x="610" y="326" font-family="Arial" font-size="28" fill="#F1F1F1">F</text><text x="165" y="118" font-family="Arial" font-size="25" fill="#B6B6B6">1/4</text><text x="500" y="118" font-family="Arial" font-size="25" fill="#B6B6B6">3/4</text>
</svg>